<?xml version="1.0" encoding="UTF-8"?>
<svg xmlns="http://www.w3.org/2000/svg" xmlns:xlink="http://www.w3.org/1999/xlink" width="24px" height="24px" viewBox="0 0 24 24" version="1.1">
    <!-- Generator: Sketch 51.3 (57544) - http://www.bohemiancoding.com/sketch -->
    <title>308 - Stopwatch </title>
    <desc>Created with Sketch.</desc>
    <defs/>
    <g id="Page-1" stroke="none" stroke-width="1" fill="none" fill-rule="evenodd">
        <g id="308---Stopwatch-" fill-rule="nonzero">
            <circle id="Oval" fill="#E3E6E8" cx="12" cy="12" r="12"/>
            <path d="M12,24 C7.20966691,23.9997755 2.8783745,21.1505727 0.981476431,16.7518151 C-0.915421642,12.3530574 -0.0144850424,7.24753454 3.2734,3.7637 C3.65604646,3.38058347 4.27411695,3.3716259 4.66770523,3.74349262 C5.06129351,4.11535933 5.0874005,4.73294316 4.7266,5.1367 C1.53548208,8.51841368 1.09622161,13.6534364 3.66662237,17.5280023 C6.23702312,21.4025682 11.1388381,22.9943026 15.495172,21.36901 C19.8515059,19.7437174 22.5128607,15.3302608 21.9172765,10.7189161 C21.3216922,6.10757135 17.6263246,2.5151256 13,2.05 L13,4 C13,4.55228475 12.5522847,5 12,5 C11.4477153,5 11,4.55228475 11,4 L11,1 C11,0.44771525 11.4477153,1.01453063e-16 12,0 C18.627417,4.05812251e-16 24,5.372583 24,12 C24,18.627417 18.627417,24 12,24 Z" id="Shape" fill="#55BAFF"/>
            <path d="M12,13 C11.7347329,13.0003072 11.4802865,12.8948577 11.293,12.707 L7.293,8.707 C7.03304342,8.45592553 6.9287874,8.08412211 7.02030284,7.73449268 C7.11181828,7.38486324 7.38486324,7.11181828 7.73449268,7.02030284 C8.08412211,6.9287874 8.45592553,7.03304342 8.707,7.293 L12.707,11.293 C12.9929079,11.5789943 13.0784219,12.0090366 12.923678,12.3826546 C12.7689341,12.7562725 12.4043959,12.9999137 12,13 Z" id="Shape" fill="#058BC6"/>
        </g>
    </g>
</svg>
