<?xml version="1.0" encoding="UTF-8"?>
<svg xmlns="http://www.w3.org/2000/svg" xmlns:xlink="http://www.w3.org/1999/xlink" width="24px" height="24px" viewBox="0 0 24 24" version="1.1">
    <!-- Generator: Sketch 51.3 (57544) - http://www.bohemiancoding.com/sketch -->
    <title>190 - Note</title>
    <desc>Created with Sketch.</desc>
    <defs/>
    <g id="Page-1" stroke="none" stroke-width="1" fill="none" fill-rule="evenodd">
        <g id="190---Note" fill-rule="nonzero">
            <path d="M21.8194,3 C23.0016486,2.97780575 23.9782688,3.91776736 24.0013,5.1 L24.0013,21.9 C23.9782688,23.0822326 23.0016486,24.0221942 21.8194,24 L2.1819,24 C0.999651351,24.0221942 0.023031242,23.0822326 0,21.9 L0,5.1 C0.023031242,3.91776736 0.999651351,2.97780575 2.1819,3 L21.8194,3 Z" id="Shape" fill="#E3E6E8"/>
            <path d="M24.0013,5 L24.0013,8 L0.0013,8 L0.0013,5 C0.0532983058,3.84602513 1.02906849,2.95160266 2.1832,3 L21.82,3 C22.9725207,2.95571428 23.9456611,3.84797153 24.0013,5 Z" id="Shape" fill="#55BAFF"/>
            <path d="M15.0013,3 C14.996467,4.65484823 13.6561482,5.99516701 12.0013,6 C11.4490153,6 11.0013,5.55228475 11.0013,5 C11.0013,4.44771525 11.4490153,4 12.0013,4 C12.5535847,4 13.0013,3.55228475 13.0013,3 C13.0013,2.44771525 12.5535847,2 12.0013,2 C11.4490153,2 11.0013,2.44771525 11.0013,3 L9.0013,3 C9.0013,1.34314575 10.3444458,-5.83819232e-16 12.0013,-8.8817842e-16 C13.6581542,-1.19253761e-15 15.0013,1.34314575 15.0013,3 Z" id="Shape" fill="#058BC6"/>
            <path d="M22.0013,3 L22.0013,3.01 C21.9921315,4.66141909 20.6527405,5.99634544 19.0013,6 C18.4490153,6 18.0013,5.55228475 18.0013,5 C18.0013,4.44771525 18.4490153,4 19.0013,4 C19.5535847,4 20.0013,3.55228475 20.0013,3 C20.0013,2.44771525 19.5535847,2 19.0013,2 C18.4490153,2 18.0013,2.44771525 18.0013,3 L16.0013,3 C16.0013,1.34314575 17.3444458,3.04359188e-16 19.0013,0 C20.6581542,-3.04359188e-16 22.0013,1.34314575 22.0013,3 Z" id="Shape" fill="#058BC6"/>
            <path d="M8.0013,3 C7.99646701,4.65484823 6.65614823,5.99516701 5.0013,6 C4.44901525,6 4.0013,5.55228475 4.0013,5 C4.0013,4.44771525 4.44901525,4 5.0013,4 C5.55358475,4 6.0013,3.55228475 6.0013,3 C6.0013,2.44771525 5.55358475,2 5.0013,2 C4.44901525,2 4.0013,2.44771525 4.0013,3 L2.1813,3 C2.12112661,2.99834308 2.06091956,3.00168791 2.0013,3.01 L2.0013,3 C2.0013,1.34314575 3.34444575,-5.83819232e-16 5.0013,-8.8817842e-16 C6.65815425,-1.19253761e-15 8.0013,1.34314575 8.0013,3 Z" id="Shape" fill="#058BC6"/>
            <path d="M8,14 L5,14 C4.44771525,14 4,13.5522847 4,13 C4,12.4477153 4.44771525,12 5,12 L8,12 C8.55228475,12 9,12.4477153 9,13 C9,13.5522847 8.55228475,14 8,14 Z" id="Shape" fill="#058BC6"/>
            <path d="M16,14 L11,14 C10.4477153,14 10,13.5522847 10,13 C10,12.4477153 10.4477153,12 11,12 L16,12 C16.5522847,12 17,12.4477153 17,13 C17,13.5522847 16.5522847,14 16,14 Z" id="Shape" fill="#55BAFF"/>
            <path d="M19,14 C18.7348818,13.9980565 18.4806665,13.894222 18.29,13.71 C18.1071901,13.5184155 18.0035946,13.2647851 18,13 C17.996304,12.8687949 18.023718,12.7385782 18.08,12.62 C18.1306856,12.498838 18.2017083,12.3872309 18.29,12.29 C18.6909822,11.9198854 19.3090178,11.9198854 19.71,12.29 C19.7982917,12.3872309 19.8693144,12.498838 19.92,12.62 C19.9758158,12.7387349 20.0032062,12.8688394 20,13 C19.9986529,13.0670919 19.9919651,13.1339699 19.98,13.2 C19.9693536,13.262723 19.9491167,13.3234338 19.92,13.38 C19.8979131,13.4436408 19.8676605,13.504146 19.83,13.56 C19.79,13.61 19.75,13.66 19.71,13.71 C19.518105,13.89233 19.2646709,13.9958454 19,14 Z" id="Shape" fill="#058BC6"/>
            <path d="M8,19 L5,19 C4.44771525,19 4,18.5522847 4,18 C4,17.4477153 4.44771525,17 5,17 L8,17 C8.55228475,17 9,17.4477153 9,18 C9,18.5522847 8.55228475,19 8,19 Z" id="Shape" fill="#058BC6"/>
            <path d="M16,19 L11,19 C10.4477153,19 10,18.5522847 10,18 C10,17.4477153 10.4477153,17 11,17 L16,17 C16.5522847,17 17,17.4477153 17,18 C17,18.5522847 16.5522847,19 16,19 Z" id="Shape" fill="#55BAFF"/>
            <path d="M19,19 C18.7348818,18.9980565 18.4806665,18.894222 18.29,18.71 C18.2471963,18.6623089 18.207132,18.6122285 18.17,18.56 C18.1319519,18.5043732 18.1016726,18.4438145 18.08,18.38 C18.0511608,18.3232634 18.0307462,18.2626259 18.0194,18.2 C18.0081234,18.1338878 18.0016398,18.067047 18,18 C17.996304,17.8687949 18.023718,17.7385782 18.08,17.62 C18.1306856,17.498838 18.2017083,17.3872309 18.29,17.29 L18.4395,17.17 C18.4954454,17.1321288 18.5561774,17.1018636 18.6201,17.08 C18.6767424,17.0510646 18.7374248,17.0308372 18.8001,17.02 C18.9283276,16.9896413 19.0618724,16.9896413 19.1901,17.02 C19.2563035,17.0294086 19.3204998,17.0496811 19.3801,17.08 C19.4415453,17.0999425 19.4990648,17.130394 19.5501,17.17 C19.6101,17.21 19.6601,17.25 19.7101,17.29 C19.7983917,17.3872309 19.8694144,17.498838 19.9201,17.62 C19.9758814,17.7387432 20.0032375,17.8688473 20,18 C19.9986529,18.0670919 19.9919651,18.1339699 19.98,18.2 C19.9693536,18.262723 19.9491167,18.3234338 19.92,18.38 C19.8979131,18.4436408 19.8676605,18.504146 19.83,18.56 C19.79,18.61 19.75,18.66 19.71,18.71 C19.518105,18.89233 19.2646709,18.9958454 19,19 Z" id="Shape" fill="#058BC6"/>
        </g>
    </g>
</svg>
