<?xml version="1.0" encoding="UTF-8"?>
<svg xmlns="http://www.w3.org/2000/svg" xmlns:xlink="http://www.w3.org/1999/xlink" width="22px" height="22px" viewBox="0 0 22 22" version="1.1">
    <!-- Generator: Sketch 51.3 (57544) - http://www.bohemiancoding.com/sketch -->
    <title>151 - Add</title>
    <desc>Created with Sketch.</desc>
    <defs/>
    <g id="Page-1" stroke="none" stroke-width="1" fill="none" fill-rule="evenodd">
        <g id="151---Add" fill-rule="nonzero">
            <circle id="Oval" fill="#E3E6E8" cx="11" cy="11" r="11"/>
            <circle id="Oval" fill="#E3E6E8" cx="11" cy="11" r="11"/>
            <path d="M17,12 L5.002,12 C4.44971525,12 4.002,11.5522847 4.002,11 C4.002,10.4477153 4.44971525,10 5.002,10 L17,10 C17.5522847,10 18,10.4477153 18,11 C18,11.5522847 17.5522847,12 17,12 Z" id="Shape" fill="#058BC6"/>
            <path d="M11.001,17.999 C10.4487153,17.999 10.001,17.5512847 10.001,16.999 L10.001,5.001 C10.001,4.44871525 10.4487153,4.001 11.001,4.001 C11.5532847,4.001 12.001,4.44871525 12.001,5.001 L12.001,16.999 C12.001,17.5512847 11.5532847,17.999 11.001,17.999 Z" id="Shape" fill="#058BC6"/>
        </g>
    </g>
</svg>
