<?xml version="1.0" encoding="UTF-8"?>
<svg xmlns="http://www.w3.org/2000/svg" xmlns:xlink="http://www.w3.org/1999/xlink" width="22px" height="22px" viewBox="0 0 22 22" version="1.1">
    <!-- Generator: Sketch 51.3 (57544) - http://www.bohemiancoding.com/sketch -->
    <title>154 - Sucess </title>
    <desc>Created with Sketch.</desc>
    <defs/>
    <g id="Page-1" stroke="none" stroke-width="1" fill="none" fill-rule="evenodd">
        <g id="154---Sucess-" fill-rule="nonzero">
            <circle id="Oval" fill="#E3E6E8" cx="11" cy="11" r="11"/>
            <path d="M9,16 C8.73480519,15.9999434 8.48049273,15.8945494 8.293,15.707 L5.293,12.707 C4.91402779,12.3146211 4.91944763,11.6909152 5.30518142,11.3051814 C5.69091522,10.9194476 6.31462111,10.9140278 6.707,11.293 L8.9063,13.4917 L15.2109,5.3862 C15.4268418,5.09446242 15.7839083,4.94263823 16.1438303,4.98951924 C16.5037523,5.03640026 16.8100136,5.27462504 16.9440187,5.61194435 C17.0780238,5.94926366 17.0187308,6.33271035 16.7891,6.6138 L9.7891,15.6138 C9.61339484,15.8403673 9.34867006,15.9803442 9.0625,15.998 C9.041,16 9.0205,16 9,16 Z" id="Shape" fill="#058BC6"/>
        </g>
    </g>
</svg>
