<?xml version="1.0" encoding="UTF-8"?>
<svg xmlns="http://www.w3.org/2000/svg" xmlns:xlink="http://www.w3.org/1999/xlink" width="22px" height="22px" viewBox="0 0 22 22" version="1.1">
    <!-- Generator: Sketch 51.3 (57544) - http://www.bohemiancoding.com/sketch -->
    <title>309 - Speed Dial </title>
    <desc>Created with Sketch.</desc>
    <defs/>
    <g id="Page-1" stroke="none" stroke-width="1" fill="none" fill-rule="evenodd">
        <g id="309---Speed-Dial-" fill-rule="nonzero">
            <path d="M22,11 C22,11.34 21.98,11.67 21.95,12 C21.4354401,17.6636055 16.6869323,22.0002513 11,22.0002513 C5.31306768,22.0002513 0.564559889,17.6636055 0.05,12 C0.02,11.67 1.77635684e-15,11.34 1.77635684e-15,11 C1.77635684e-15,10.66 0.02,10.33 0.05,10 C0.242541319,7.77934189 1.11163188,5.67118646 2.54,3.96 C2.97248839,3.44751185 3.44751185,2.97248839 3.96,2.54 C5.67115955,1.11158733 7.77932958,0.242490741 10,0.05 C10.33,0.02 10.66,0 11,0 C11.34,0 11.67,0.02 12,0.05 C14.2206704,0.242490741 16.3288404,1.11158733 18.04,2.54 C18.5524881,2.97248839 19.0275116,3.44751185 19.46,3.96 C20.8883681,5.67118646 21.7574587,7.77934189 21.95,10 C21.98,10.33 22,10.66 22,11 Z" id="Shape" fill="#E3E6E8"/>
            <path d="M12,0.05 L12,3 C12,3.55228475 11.5522847,4 11,4 C10.4477153,4 10,3.55228475 10,3 L10,0.05 C10.33,0.02 10.66,0 11,0 C11.34,0 11.67,0.02 12,0.05 Z" id="Shape" fill="#55BAFF"/>
            <path d="M22,11 C22,11.34 21.98,11.67 21.95,12 L19,12 C18.4477153,12 18,11.5522847 18,11 C18,10.4477153 18.4477153,10 19,10 L21.95,10 C21.98,10.33 22,10.66 22,11 Z" id="Shape" fill="#55BAFF"/>
            <path d="M4,11 C3.99840721,11.5516236 3.55162365,11.9984072 3,12 L0.05,12 C0.02,11.67 0,11.34 0,11 C0,10.66 0.02,10.33 0.05,10 L3,10 C3.55162365,10.0015928 3.99840721,10.4483764 4,11 Z" id="Shape" fill="#55BAFF"/>
            <path d="M19.46,3.96 L17.36,6.05 C17.1762972,6.23855355 16.9232254,6.34339761 16.66,6.34 C16.3938082,6.34356837 16.1375741,6.23890937 15.95,6.05 C15.7627473,5.86316847 15.6575144,5.60951764 15.6575144,5.345 C15.6575144,5.08048236 15.7627473,4.82683153 15.95,4.64 L18.04,2.54 C18.5524881,2.97248839 19.0275116,3.44751185 19.46,3.96 Z" id="Shape" fill="#55BAFF"/>
            <path d="M6.05,6.05 C5.86242589,6.23890937 5.60619178,6.34356837 5.34,6.34 C5.07677462,6.34339761 4.82370276,6.23855355 4.64,6.05 L2.54,3.96 C2.97248839,3.44751185 3.44751185,2.97248839 3.96,2.54 L6.05,4.64 C6.23725267,4.82683153 6.34248561,5.08048236 6.34248561,5.345 C6.34248561,5.60951764 6.23725267,5.86316847 6.05,6.05 Z" id="Shape" fill="#55BAFF"/>
            <path d="M18.5,19.03 C18.1306736,19.3743972 17.7398903,19.69504 17.33,19.99 C17.19,20.08 17.05,20.18 16.91,20.27 C16.62,20.45 16.33,20.62 16.03,20.78 C15.5763981,21.016532 15.1049544,21.2171464 14.62,21.38 C14.34,21.48 14.05,21.57 13.75,21.65 C13.219089,21.79193 12.6771776,21.8889389 12.13,21.94 C11.99,21.96 11.85,21.97 11.72,21.98 C11.48,21.99 11.24,22 11,22 C10.76,22 10.52,21.99 10.28,21.98 C10.15,21.97 10.01,21.96 9.87,21.94 C9.32282236,21.8889389 8.78091098,21.79193 8.25,21.65 C7.95,21.57 7.66,21.48 7.38,21.38 C6.89504563,21.2171464 6.42360188,21.016532 5.97,20.78 C5.67,20.62 5.38,20.45 5.09,20.27 C4.95,20.18 4.81,20.08 4.67,19.99 C4.26010973,19.69504 3.86932638,19.3743972 3.5,19.03 C5.16556937,16.5134733 7.98221471,14.9999934 11,14.9999934 C14.0177853,14.9999934 16.8344306,16.5134733 18.5,19.03 Z" id="Shape" fill="#55BAFF"/>
            <path d="M11,12 C10.5956041,11.9999137 10.2310659,11.7562725 10.076322,11.3826546 C9.92157809,11.0090366 10.0070921,10.5789943 10.293,10.293 L13.293,7.293 C13.6853789,6.91402779 14.3090848,6.91944763 14.6948186,7.30518142 C15.0805524,7.69091522 15.0859722,8.31462111 14.707,8.707 L11.707,11.707 C11.5197135,11.8948577 11.2652671,12.0003072 11,12 Z" id="Shape" fill="#058BC6"/>
        </g>
    </g>
</svg>
